<svg xmlns="http://www.w3.org/2000/svg" viewBox="0 0 16 16" shape-rendering="crispEdges">
  <rect x="4" y="1" width="8" height="1" fill="#000"/>
  <rect x="2" y="2" width="2" height="1" fill="#000"/>
  <rect x="12" y="2" width="2" height="1" fill="#000"/>
  <rect x="1" y="4" width="1" height="8" fill="#000"/>
  <rect x="14" y="4" width="1" height="8" fill="#000"/>
  <rect x="2" y="3" width="1" height="1" fill="#000"/>
  <rect x="13" y="3" width="1" height="1" fill="#000"/>
  <rect x="2" y="12" width="1" height="1" fill="#000"/>
  <rect x="13" y="12" width="1" height="1" fill="#000"/>
  <rect x="4" y="14" width="8" height="1" fill="#000"/>
  <rect x="2" y="13" width="2" height="1" fill="#000"/>
  <rect x="12" y="13" width="2" height="1" fill="#000"/>
  <rect x="2" y="4" width="12" height="8" fill="#00D7D7"/>
  <rect x="4" y="2" width="8" height="2" fill="#00D7D7"/>
  <rect x="4" y="12" width="8" height="2" fill="#00D7D7"/>
  <rect x="3" y="3" width="1" height="1" fill="#00D7D7"/>
  <rect x="12" y="3" width="1" height="1" fill="#00D7D7"/>
  <rect x="3" y="12" width="1" height="1" fill="#00D7D7"/>
  <rect x="12" y="12" width="1" height="1" fill="#00D7D7"/>
  <rect x="7" y="3" width="2" height="2" fill="#000"/>
  <rect x="7" y="6" width="2" height="6" fill="#000"/>
</svg>
