<svg xmlns="http://www.w3.org/2000/svg" viewBox="0 0 16 16" shape-rendering="crispEdges">
  <rect x="1" y="1" width="14" height="14" fill="#000"/>
  <rect x="2" y="2" width="12" height="12" fill="#0000D7"/>
  <rect x="4" y="3" width="1" height="10" fill="#000"/>
  <rect x="5" y="3" width="1" height="1" fill="#000"/>
  <rect x="5" y="12" width="1" height="1" fill="#000"/>
  <rect x="6" y="4" width="1" height="1" fill="#000"/>
  <rect x="6" y="11" width="1" height="1" fill="#000"/>
  <rect x="7" y="5" width="1" height="1" fill="#000"/>
  <rect x="7" y="10" width="1" height="1" fill="#000"/>
  <rect x="8" y="6" width="1" height="1" fill="#000"/>
  <rect x="8" y="9" width="1" height="1" fill="#000"/>
  <rect x="9" y="7" width="1" height="2" fill="#000"/>
  <rect x="5" y="4" width="1" height="8" fill="#D7D700"/>
  <rect x="6" y="5" width="1" height="6" fill="#D7D700"/>
  <rect x="7" y="6" width="1" height="4" fill="#D7D700"/>
  <rect x="8" y="7" width="1" height="2" fill="#D7D700"/>
</svg>
